# xmcd
#
# Track frame offsets: 
#        150
#        12522
#        29255
#        40952
#        64496
#        77948
#        91122
#        107020
#        117659
#        131702
#        145635
#        165527
#
# Disc length: 2401 seconds
#
# Revision: 0
# Processed by: cddbd v1.5.2PL0 Copyright (c) Steve Scherf et al.
# Submitted via: ExactAudioCopy v0.99pb4
#
DISCID=a3095f0c
DTITLE=Darren Nicholson - Darren Nicholson
DYEAR=2006
DGENRE=Bluegrass
TTITLE0=Amanda Jewell
TTITLE1=Love makes a fool of us all
TTITLE2=I'll be ready
TTITLE3=Footsteps so near
TTITLE4=Goodbye Liza Jane
TTITLE5=Milwaukee here I come
TTITLE6=I floew over our house
TTITLE7=I'm going back to old Kentucky
TTITLE8=Old memories
TTITLE9=Arab bounce
TTITLE10=Strength in the Lord
TTITLE11=Unfaithful one
EXTD=
EXTT0=
EXTT1=
EXTT2=
EXTT3=
EXTT4=
EXTT5=
EXTT6=
EXTT7=
EXTT8=
EXTT9=
EXTT10=
EXTT11=
PLAYORDER=
